<?xml version="1.0" standalone="no"?>
<!DOCTYPE svg PUBLIC "-//W3C//DTD SVG 20010904//EN"
 "http://www.w3.org/TR/2001/REC-SVG-20010904/DTD/svg10.dtd">
<svg version="1.0" xmlns="http://www.w3.org/2000/svg"
 width="315.000000pt" height="302.000000pt" viewBox="0 0 315.000000 302.000000"
 preserveAspectRatio="xMidYMid meet">

<g transform="translate(0.000000,302.000000) scale(0.100000,-0.100000)"
fill="#000000" stroke="none">
<path d="M1553 2819 c-55 -16 -103 -101 -103 -184 0 -54 135 -518 144 -495 3
8 34 105 67 215 71 230 81 317 44 389 -33 65 -89 92 -152 75z"/>
<path d="M1138 2744 c-40 -21 -58 -64 -58 -133 0 -77 28 -131 183 -354 l117
-169 -6 229 c-3 125 -10 249 -15 276 -24 127 -131 200 -221 151z"/>
<path d="M1913 2741 c-38 -24 -78 -90 -91 -151 -6 -25 -13 -148 -17 -275 l-7
-230 63 90 c152 219 213 312 227 345 20 48 19 138 -2 177 -31 61 -112 81 -173
44z"/>
<path d="M764 2546 c-29 -29 -34 -41 -34 -83 0 -75 37 -140 118 -206 133 -110
344 -268 339 -254 -3 8 -24 68 -47 133 -107 308 -122 344 -172 391 -40 38 -76
53 -130 53 -32 0 -47 -7 -74 -34z"/>
<path d="M2259 2560 c-75 -39 -103 -94 -208 -392 -28 -81 -54 -155 -58 -164
-6 -15 245 171 355 264 66 56 102 123 102 193 0 45 -4 55 -34 85 -28 28 -41
34 -77 34 -24 -1 -60 -10 -80 -20z"/>
<path d="M533 2299 c-78 -22 -106 -113 -59 -194 43 -72 77 -90 356 -190 96
-35 184 -66 194 -71 21 -8 -212 305 -278 374 -64 67 -148 99 -213 81z"/>
<path d="M2509 2275 c-25 -13 -68 -50 -96 -82 -97 -114 -276 -356 -257 -349
10 5 101 37 200 72 226 79 261 94 302 129 79 66 94 172 33 227 -41 37 -115 38
-182 3z"/>
<path d="M1455 2080 c-118 -24 -272 -113 -348 -201 -62 -71 -115 -164 -140
-244 -32 -100 -32 -290 0 -390 86 -272 337 -455 623 -455 303 0 567 205 635
492 17 72 19 231 5 298 -29 126 -105 257 -203 346 -70 63 -210 136 -295 153
-60 12 -217 13 -277 1z m293 -181 c117 -40 231 -142 282 -251 125 -270 -12
-578 -300 -674 -73 -24 -205 -24 -280 0 -346 114 -457 537 -211 800 126 134
334 186 509 125z"/>
<path d="M1502 1599 c-123 -61 -123 -257 1 -321 62 -32 137 -29 189 8 148 104
81 333 -97 334 -31 0 -66 -8 -93 -21z"/>
<path d="M354 1950 c-99 -31 -112 -163 -23 -229 62 -46 102 -53 358 -62 135
-5 246 -7 248 -6 4 5 -360 253 -404 275 -48 25 -135 35 -179 22z"/>
<path d="M2714 1950 c-22 -5 -65 -23 -95 -40 -47 -28 -262 -173 -352 -238
l-32 -23 235 7 c252 6 291 12 358 51 75 43 101 116 67 183 -26 50 -102 75
-181 60z"/>
<path d="M305 1565 c-58 -21 -95 -66 -95 -116 0 -55 23 -95 68 -118 58 -30
120 -35 193 -17 99 25 413 119 421 125 4 4 -59 26 -140 51 -324 96 -366 104
-447 75z"/>
<path d="M2695 1565 c-33 -7 -125 -33 -205 -58 -80 -24 -160 -48 -177 -51 -32
-7 -46 -26 -20 -26 8 0 103 -27 213 -60 248 -76 301 -82 377 -47 63 29 87 63
87 126 0 56 -49 105 -120 120 -62 13 -79 13 -155 -4z"/>
<path d="M555 1221 c-106 -5 -138 -10 -176 -29 -67 -32 -100 -72 -106 -125
-10 -85 43 -137 139 -137 87 0 124 20 441 239 l89 61 -129 -2 c-70 -1 -186 -4
-258 -7z"/>
<path d="M2410 1110 c96 -67 193 -132 215 -145 104 -60 232 -48 270 25 48 93
-25 193 -160 219 -28 5 -151 13 -275 16 l-225 6 175 -121z"/>
<path d="M820 966 c-229 -81 -273 -102 -311 -143 -46 -50 -59 -77 -59 -121 0
-137 166 -164 284 -47 24 24 85 99 136 167 52 68 111 144 133 171 21 26 35 47
30 46 -4 0 -100 -33 -213 -73z"/>
<path d="M2256 888 c166 -220 200 -257 258 -284 212 -99 304 143 98 258 -38
22 -451 178 -469 178 -2 0 49 -69 113 -152z"/>
<path d="M1016 760 c-93 -71 -187 -146 -209 -167 -48 -46 -77 -108 -79 -166
-1 -54 14 -82 55 -107 57 -35 117 -23 180 38 51 49 70 87 134 272 30 85 63
179 73 208 11 28 19 52 17 52 -1 -1 -78 -59 -171 -130z"/>
<path d="M1994 874 c4 -11 35 -98 68 -194 73 -211 96 -265 133 -308 98 -116
255 -82 255 56 0 66 -43 134 -128 205 -149 122 -335 259 -328 241z"/>
<path d="M1310 697 c-35 -50 -96 -140 -136 -199 -70 -102 -104 -181 -104 -237
1 -44 36 -108 69 -125 76 -40 153 -1 202 101 20 41 23 68 30 297 4 138 6 252
5 253 -1 2 -31 -39 -66 -90z"/>
<path d="M1804 551 c5 -178 11 -256 23 -290 43 -131 150 -181 230 -107 33 30
37 39 41 95 7 97 -11 131 -237 456 l-63 90 6 -244z"/>
<path d="M1520 532 c-55 -183 -65 -229 -65 -292 0 -61 4 -82 23 -113 60 -95
175 -90 223 10 32 66 29 149 -9 278 -16 55 -44 150 -62 210 -17 61 -35 113
-38 117 -4 4 -36 -91 -72 -210z"/>
</g>
</svg>
